<?xml version="1.0" encoding="UTF-8" standalone="no"?>
<!DOCTYPE svg PUBLIC "-//W3C//DTD SVG 1.1//EN" "http://www.w3.org/Graphics/SVG/1.1/DTD/svg11.dtd">
<svg width="100%" height="100%" viewBox="0 0 592 592" version="1.1" xmlns="http://www.w3.org/2000/svg" xmlns:xlink="http://www.w3.org/1999/xlink" xml:space="preserve" xmlns:serif="http://www.serif.com/" style="fill-rule:evenodd;clip-rule:evenodd;stroke-linejoin:round;stroke-miterlimit:2;">
    <g>
        <g>
            <path d="M552.963,141.235C551.747,130.112 548.525,119.582 543.751,109.958C531.768,62.658 487.549,36.412 442.351,43.303C429.03,26.175 411.008,12.699 388.328,4.804C352.517,-7.66 314.231,5.086 290.8,32.038C224.753,-21.847 122.9,4.853 94.732,91.667C93.349,95.931 90.999,99.896 89.795,104.193C89.754,104.344 89.713,104.495 89.677,104.65C61.023,112.088 32.598,135.54 30.256,164.712C30.11,166.548 30.068,168.323 30.077,170.069C15.124,208.707 17.094,246.385 40.285,282.796C64.479,320.789 99.412,339.405 142.807,339.862C184.325,396.049 222.387,454.686 256.981,515.433C255.402,524.931 252.154,535.27 247.663,547.836C237.536,576.167 247.022,590.41 277.157,591.316C281.694,591.451 286.268,591.565 290.78,591.177C308.251,589.663 317.423,576.627 312.608,559.814C309.38,548.542 303.73,537.692 302.212,526.248C302.138,525.686 302.22,523.021 302.526,518.741C319.535,486.493 357.515,467.509 378.858,438.226C392.722,419.205 402.685,398.05 408.462,375.797C421.942,374.908 435.541,370.75 449.278,362.052C470.008,348.923 482,326.927 485.007,303.577C487.704,297.942 491.131,295.307 498.308,294.202C539.454,287.862 564.739,261.399 570.063,220.325C573.682,192.389 565.648,167.477 552.984,143.34C553.017,142.663 553.045,141.985 552.963,141.235ZM181.337,351.619C192.537,362.072 203.548,372.754 213.014,384.627C218.44,391.432 222.847,405.075 227.077,418.906C212.357,396.124 197.074,373.713 181.337,351.619ZM280.379,445.39C271.844,446.733 252.011,403.333 245.132,389.294C266.621,387.923 288.299,386.544 311.215,385.079C310.701,386.581 310.396,388.363 309.542,389.833C302.203,402.456 297.682,442.669 280.379,445.39ZM347.23,437.846C334.917,451.077 320.824,462.314 308.029,474.44C313.501,441.956 323.598,400.315 341.432,368.12C343.489,364.407 345.896,362.358 348.764,361.425C360.257,367.075 371.84,371.466 383.509,373.905C376.761,397.372 364.623,419.159 347.23,437.846Z" style="fill:rgb(30,139,3);fill-rule:nonzero;"/>
        </g>
    </g>
</svg>
