<?xml version="1.0" encoding="UTF-8" standalone="no"?>
<!DOCTYPE svg PUBLIC "-//W3C//DTD SVG 1.1//EN" "http://www.w3.org/Graphics/SVG/1.1/DTD/svg11.dtd">
<svg width="100%" height="100%" viewBox="0 0 612 612" version="1.1" xmlns="http://www.w3.org/2000/svg" xmlns:xlink="http://www.w3.org/1999/xlink" xml:space="preserve" xmlns:serif="http://www.serif.com/" style="fill-rule:evenodd;clip-rule:evenodd;stroke-linejoin:round;stroke-miterlimit:2;">
    <g>
        <g>
            <path d="M567.273,488.286L487.382,387.506L515.523,387.506C524.679,387.506 528.093,383.103 529.314,380.479C530.535,377.854 531.701,372.406 525.8,365.403L434.699,257.283L472.923,257.283C482.16,257.283 485.453,252.902 486.593,250.29C487.734,247.678 488.71,242.286 482.43,235.511L394.456,140.574L415.755,140.574C424.991,140.574 428.285,136.193 429.425,133.582C430.566,130.97 431.542,125.577 425.262,118.801L321.556,6.891C317.439,2.448 311.914,0 305.999,0C300.084,0 294.56,2.448 290.442,6.891L186.736,118.803C180.458,125.579 181.433,130.973 182.575,133.584C183.715,136.194 187.008,140.576 196.245,140.576L217.544,140.576L129.57,235.513C123.291,242.288 124.266,247.681 125.407,250.292C126.547,252.904 129.839,257.285 139.077,257.285L177.301,257.285L86.198,365.405C80.299,372.408 81.465,377.856 82.686,380.481C83.907,383.105 87.321,387.508 96.477,387.508L124.618,387.508L44.727,488.288C39.071,495.422 40.359,500.902 41.631,503.533C42.904,506.165 46.396,510.578 55.5,510.578L556.501,510.578C565.605,510.578 569.099,506.164 570.37,503.533C571.641,500.9 572.929,495.42 567.273,488.286Z" style="fill:rgb(3,118,96);fill-rule:nonzero;"/>
            <path d="M348.979,534.947L263.019,534.947C253.737,534.947 246.185,542.499 246.185,551.781L246.185,595.166C246.185,604.448 253.737,612 263.019,612L348.979,612C358.261,612 365.813,604.448 365.813,595.166L365.813,551.781C365.813,542.499 358.261,534.947 348.979,534.947Z" style="fill:rgb(3,118,96);fill-rule:nonzero;"/>
        </g>
    </g>
</svg>
